<svg width="191" height="43" viewBox="0 0 191 43" fill="none" xmlns="http://www.w3.org/2000/svg">
<path d="M4.90201 26.0134C4.45891 26.0134 4.11914 26.3055 4.11914 26.7367C4.11914 27.1976 4.48077 27.45 4.90201 27.45C5.32324 27.45 5.68487 27.1996 5.68487 26.7367C5.68487 26.3055 5.35305 26.0134 4.90201 26.0134Z" fill="#138184"/>
<path d="M2.72232 26.0134C2.28121 26.0134 1.93945 26.3055 1.93945 26.7367C1.93945 27.1976 2.30108 27.45 2.72232 27.45C3.14356 27.45 3.50518 27.1996 3.50518 26.7367C3.50518 26.3055 3.16343 26.0134 2.72232 26.0134Z" fill="#138184"/>
<path d="M31.8187 17.847C32.2598 17.847 32.6413 17.5867 32.6413 17.0939C32.6413 16.6528 32.2896 16.3508 31.8187 16.3508C31.3478 16.3508 30.9961 16.6528 30.9961 17.0939C30.9961 17.5867 31.3776 17.847 31.8187 17.847Z" fill="#138184"/>
<path d="M52.2791 22.9515H51.2956H50.3717C50.4114 22.7508 50.4412 22.5302 50.4412 22.3077C50.4412 20.5711 49.0861 19.2339 47.3872 19.2339C45.6884 19.2339 44.3829 20.5989 44.3829 22.3077C44.3829 22.5283 44.4028 22.7488 44.4525 22.9515H43.6796H41.7005H40.9375C40.9773 22.7011 40.9971 22.4587 40.9971 22.2382C40.9971 21.0321 40.7249 19.9889 40.1745 19.1742C39.5625 18.2801 38.6068 17.5966 37.1206 17.5966C36.1152 17.5966 35.0621 17.9284 34.158 18.3795L34.6309 19.6551C35.1634 19.363 35.9264 19.0133 36.7609 19.0133C37.8855 19.0133 38.6187 19.365 39.0718 20.0485C39.4334 20.6009 39.5943 21.2029 39.5943 21.9977C39.5943 22.2799 39.5645 22.6097 39.5149 22.9515H38.6009C38.6406 22.7607 38.6823 22.4686 38.6823 22.2183C38.6823 20.8115 37.7981 19.9074 36.5821 19.9074C35.2965 19.9074 34.5037 20.732 34.5037 22.2282C34.5037 22.4786 34.5534 22.7607 34.5931 22.9515H33.6394H32.5644V18.7033H31.1577V22.9515H29.9118H28.3362H10.3561H9.47188V18.7033H7.57433C6.8014 18.7033 6.11788 18.8742 5.6569 19.2358C5.05485 19.7187 4.79257 20.4121 4.79257 21.3758V24.2092H3.32619C2.73407 24.2092 2.17176 24.1178 1.83 23.8277C1.51804 23.5674 1.40876 23.1343 1.40876 22.5422V20.5135H0V22.713C0 23.5257 0.180814 24.3304 0.673583 24.7934C1.28557 25.3756 2.03068 25.618 3.22485 25.618H6.19736V21.2884C6.19736 20.9466 6.33843 20.5453 6.56892 20.3644C6.79941 20.1836 7.07162 20.1141 7.42332 20.1141H8.0671V24.3622H10.5488H12.1344H29.9118H33.6374H41.9032H43.4789H45.1956C45.748 24.9444 46.5308 25.316 47.3852 25.316C48.2396 25.316 49.0523 24.9543 49.6146 24.3622H51.2916H53.682V16.2157H52.2752V22.9555L52.2791 22.9515ZM37.353 22.9515H35.827C35.7972 22.7607 35.7575 22.4905 35.7575 22.1984C35.7575 21.5666 36.0178 21.1632 36.5801 21.1632C37.1126 21.1632 37.4246 21.5646 37.4246 22.1984C37.4246 22.4905 37.3848 22.7607 37.355 22.9515H37.353ZM47.3872 23.9052C46.4832 23.9052 45.7897 23.1919 45.7897 22.2878C45.7897 21.3838 46.4534 20.6406 47.3872 20.6406C48.3211 20.6406 49.0344 21.344 49.0344 22.2878C49.0344 23.2316 48.3112 23.9052 47.3872 23.9052Z" fill="#138184"/>
<path d="M57.4536 16.2097H56.0469V24.3563H57.4536V16.2097Z" fill="#138184"/>
<path d="M63.8097 18.7014H63.3467V20.1081H63.9488C64.3104 20.1081 64.6323 20.2691 64.8032 20.4896C64.984 20.7201 65.0734 21.0122 65.0734 21.4136V22.9515H61.5684V24.3583H66.4801V21.4752C66.4801 20.6506 66.3192 19.9074 65.898 19.4564C65.3953 18.9239 64.7118 18.7033 63.8097 18.7033V18.7014Z" fill="#138184"/>
<path d="M105.543 17.847C105.964 17.847 106.326 17.5966 106.326 17.1237C106.326 16.7025 105.994 16.4104 105.543 16.4104C105.092 16.4104 104.76 16.7025 104.76 17.1237C104.76 17.5966 105.121 17.847 105.543 17.847Z" fill="#138184"/>
<path d="M103.363 17.847C103.784 17.847 104.146 17.5966 104.146 17.1237C104.146 16.7025 103.804 16.4104 103.363 16.4104C102.922 16.4104 102.58 16.7025 102.58 17.1237C102.58 17.5966 102.942 17.847 103.363 17.847Z" fill="#138184"/>
<path d="M108.958 21.3838C108.958 20.9407 109.089 20.5492 109.451 20.2492C109.723 20.0187 110.083 19.9074 110.546 19.9074C111.009 19.9074 111.571 20.0982 111.992 20.3386L112.465 19.063C111.782 18.7212 111.12 18.5106 110.375 18.5106C109.63 18.5106 109.01 18.7212 108.547 19.1027C107.965 19.5856 107.542 20.3187 107.542 21.2725C107.542 21.9043 107.742 22.4885 107.963 22.9495H105.221V18.7014H103.814V22.9495H101.714H100.79C100.83 22.7488 100.859 22.5283 100.859 22.3057C100.859 20.5691 99.5043 19.2319 97.8054 19.2319C96.1065 19.2319 94.8011 20.5969 94.8011 22.3057C94.8011 22.5263 94.821 22.7468 94.8706 22.9495H94.0977H92.3194H70.7866H69.7017V16.2097H68.2949V24.3563H70.9873H72.5629H93.895H95.6138C96.1661 24.9385 96.949 25.31 97.8034 25.31C98.6578 25.31 99.4705 24.9484 100.033 24.3563H101.91H106.862H112.668V22.9495H109.483C109.151 22.5382 108.95 22.0256 108.95 21.3818L108.958 21.3838ZM97.8094 23.9052C96.9053 23.9052 96.2118 23.1919 96.2118 22.2878C96.2118 21.3838 96.8755 20.6406 97.8094 20.6406C98.7432 20.6406 99.4566 21.344 99.4566 22.2878C99.4566 23.2316 98.7333 23.9052 97.8094 23.9052Z" fill="#138184"/>
<path d="M116.44 17.1555H115.033V22.4488H116.44V17.1555Z" fill="#138184"/>
<path d="M118.028 21.5646C118.028 22.0573 117.877 22.3772 117.607 22.6097C117.327 22.8402 116.924 22.9515 116.473 22.9515H113.609L113.78 24.3583H116.181C117.255 24.3583 118.11 24.1576 118.682 23.635C119.195 23.1621 119.435 22.3395 119.435 21.5149V15.4686H118.028V21.5666V21.5646Z" fill="#138184"/>
<path d="M122.399 15.6355H120.992V23.782H122.399V15.6355Z" fill="#138184"/>
<path d="M1.34453 34.3448V37.0649H0.0371094V29.7847H2.799C4.67867 29.7847 5.4973 30.8715 5.4973 32.0101C5.4973 33.2221 4.62502 34.3448 2.799 34.3448H1.34652H1.34453ZM1.34453 30.9868V33.1407H2.51685C3.47059 33.1407 4.11437 32.8804 4.11437 32.0359C4.11437 31.3186 3.59577 30.9848 2.51685 30.9848H1.34453V30.9868Z" fill="#138184"/>
<path d="M8.95685 33.1327H8.22962C8.02893 33.1327 7.41297 33.1685 7.25799 33.2221V37.0649H5.98633V32.1452C6.62216 32.02 7.46662 31.9306 7.99317 31.9306H8.95685V33.1327Z" fill="#138184"/>
<path d="M9.28516 34.5057C9.28516 33.0055 10.4833 31.8312 12.055 31.8312C13.6267 31.8312 14.8248 33.0075 14.8248 34.5057C14.8248 36.0039 13.6267 37.1722 12.055 37.1722C10.4833 37.1722 9.28516 36.0138 9.28516 34.5057ZM13.4896 34.5057C13.4896 33.7149 12.9452 33.0612 12.055 33.0612C11.1648 33.0612 10.6204 33.7169 10.6204 34.5057C10.6204 35.2945 11.1648 35.9423 12.055 35.9423C12.9452 35.9423 13.4896 35.3045 13.4896 34.5057Z" fill="#138184"/>
<path d="M15.1094 32.0101H16.0731V31.5253C16.0731 30.3132 16.691 29.7847 18.1077 29.7847H19.3237V30.951H18.1157C17.4619 30.951 17.3447 31.2113 17.3447 31.7597V32.0121H19.288V33.1784H17.3447V37.0649H16.0731V33.1784H15.1094V32.0121V32.0101Z" fill="#138184"/>
<path d="M22.4492 35.9423C22.9857 35.9423 23.6751 35.7456 23.9473 35.4932L24.5097 36.6159C23.9652 36.9119 23.2837 37.1722 22.2763 37.1722C20.6589 37.1722 19.4707 36.0238 19.4707 34.5057C19.4707 32.9877 20.6788 31.8312 22.1869 31.8312C23.695 31.8312 24.8931 32.9718 24.8296 34.919H20.7781C20.9411 35.6105 21.5232 35.9423 22.3141 35.9423H22.4512H22.4492ZM20.8238 33.8778H23.4943C23.3572 33.2579 22.8585 32.9439 22.169 32.9439C21.4795 32.9439 20.9788 33.3394 20.8258 33.8778" fill="#138184"/>
<path d="M28.6613 35.5469C28.6613 35.2866 28.4706 35.1614 27.8169 35.0362L27.4076 34.9647C26.2531 34.7501 25.5557 34.2653 25.5557 33.393C25.5557 32.4412 26.3644 31.8312 27.6897 31.8312C28.4984 31.8312 29.2972 31.9922 29.8595 32.2982L29.3965 33.4645C28.9336 33.2122 28.1984 33.0612 27.6162 33.0612C27.0797 33.0612 26.8174 33.1864 26.8174 33.393C26.8174 33.6175 27.0181 33.7526 27.6619 33.8778L28.0613 33.9494C29.4601 34.2096 30.0045 34.7024 30.0045 35.6184C30.0045 36.5344 29.2316 37.1722 27.6698 37.1722C26.8433 37.1722 25.963 36.9755 25.3809 36.6516L25.8617 35.4316C26.3247 35.7277 27.0241 35.9443 27.7056 35.9443C28.2242 35.9443 28.6594 35.837 28.6594 35.5489" fill="#138184"/>
<path d="M33.8586 35.5469C33.8586 35.2866 33.6679 35.1614 33.0141 35.0362L32.6048 34.9647C31.4504 34.7501 30.753 34.2653 30.753 33.393C30.753 32.4412 31.5617 31.8312 32.887 31.8312C33.6957 31.8312 34.4944 31.9922 35.0568 32.2982L34.5938 33.4645C34.1308 33.2122 33.3956 33.0612 32.8135 33.0612C32.277 33.0612 32.0147 33.1864 32.0147 33.393C32.0147 33.6175 32.2154 33.7526 32.8592 33.8778L33.2585 33.9494C34.6574 34.2096 35.2018 34.7024 35.2018 35.6184C35.2018 36.5344 34.4289 37.1722 32.8671 37.1722C32.0405 37.1722 31.1603 36.9755 30.5781 36.6516L31.059 35.4316C31.5219 35.7277 32.2213 35.9443 32.9029 35.9443C33.4215 35.9443 33.8566 35.837 33.8566 35.5489" fill="#138184"/>
<path d="M36.0391 30.5477C36.0391 30.1523 36.357 29.884 36.7842 29.884C37.2114 29.884 37.5194 30.1523 37.5194 30.5477C37.5194 30.9431 37.2193 31.2212 36.7842 31.2212C36.3848 31.2212 36.0391 30.9888 36.0391 30.5477ZM36.1483 32.0101H37.42V37.0629H36.1483V32.0101Z" fill="#138184"/>
<path d="M38.2012 34.5057C38.2012 33.0055 39.3993 31.8312 40.971 31.8312C42.5427 31.8312 43.7408 33.0075 43.7408 34.5057C43.7408 36.0039 42.5427 37.1722 40.971 37.1722C39.3993 37.1722 38.2012 36.0138 38.2012 34.5057ZM42.4056 34.5057C42.4056 33.7149 41.8612 33.0612 40.971 33.0612C40.0808 33.0612 39.5364 33.7169 39.5364 34.5057C39.5364 35.2945 40.0808 35.9423 40.971 35.9423C41.8612 35.9423 42.4056 35.3045 42.4056 34.5057Z" fill="#138184"/>
<path d="M44.5332 32.0915C45.324 31.9485 46.2778 31.8312 46.8301 31.8312C48.1376 31.8312 49.1926 32.2445 49.1926 33.9056V37.0649H47.921V34.2633C47.921 33.3394 47.5296 33.0612 46.7765 33.0612C46.5043 33.0612 46.1685 33.0969 45.8049 33.1605V37.0649H44.5332V32.0915Z" fill="#138184"/>
<path d="M50.0391 35.4932C50.0391 34.3626 51.0286 33.7785 52.4195 33.7785C52.6917 33.7785 53.0374 33.7964 53.4189 33.85V33.7785C53.4189 33.2042 52.9381 33.0413 52.2386 33.0413C51.7121 33.0413 50.9392 33.248 50.4404 33.4904L50.6034 32.2068C51.0107 32.0101 51.7022 31.8293 52.4095 31.8293C53.7269 31.8293 54.6886 32.3598 54.6886 33.8321V36.7768C54.0428 37.0292 53.2162 37.1722 52.4632 37.1722C51.1816 37.1722 50.0391 36.7331 50.0391 35.4932ZM53.4169 34.8733C53.1805 34.8097 52.8347 34.766 52.5546 34.766C51.9088 34.766 51.3644 34.9269 51.3644 35.4118C51.3644 35.8966 51.8552 36.0397 52.481 36.0397C52.799 36.0397 53.1447 35.986 53.4169 35.8966V34.8733Z" fill="#138184"/>
<path d="M57.0881 29.7847H55.8164V37.0649H57.0881V29.7847Z" fill="#138184"/>
<path d="M67.1902 37.0649H65.8192L65.1933 35.3502H62.1413L61.5234 37.0649H60.1523L62.8765 29.7847H64.4661L67.1902 37.0649ZM62.5764 34.1381H64.7561L63.6673 31.114L62.5764 34.1381Z" fill="#138184"/>
<path d="M70.078 31.8312C70.7774 31.8312 71.3317 31.9842 71.8483 32.2445L71.3397 33.3751C71.0039 33.1864 70.6045 33.0612 70.1316 33.0612C69.2514 33.0612 68.6692 33.6453 68.6692 34.5057C68.6692 35.3661 69.2514 35.9423 70.1316 35.9423C70.6045 35.9423 71.0039 35.8251 71.3397 35.6283L71.8483 36.7689C71.3297 37.0292 70.7754 37.1722 70.078 37.1722C68.4983 37.1722 67.3359 36.0416 67.3359 34.5057C67.3359 32.9698 68.4983 31.8312 70.078 31.8312Z" fill="#138184"/>
<path d="M74.9022 31.8312C75.6016 31.8312 76.1559 31.9842 76.6726 32.2445L76.1639 33.3751C75.8281 33.1864 75.4287 33.0612 74.9558 33.0612C74.0756 33.0612 73.4934 33.6453 73.4934 34.5057C73.4934 35.3661 74.0756 35.9423 74.9558 35.9423C75.4287 35.9423 75.8281 35.8251 76.1639 35.6283L76.6726 36.7689C76.154 37.0292 75.5996 37.1722 74.9022 37.1722C73.3225 37.1722 72.1602 36.0416 72.1602 34.5057C72.1602 32.9698 73.3225 31.8312 74.9022 31.8312Z" fill="#138184"/>
<path d="M80.3885 33.1327H79.6613C79.4606 33.1327 78.8446 33.1685 78.6896 33.2221V37.0649H77.418V32.1452C78.0538 32.02 78.8983 31.9306 79.4248 31.9306H80.3885V33.1327Z" fill="#138184"/>
<path d="M83.6953 35.9423C84.2317 35.9423 84.9212 35.7456 85.1934 35.4932L85.7557 36.6159C85.2113 36.9119 84.5298 37.1722 83.5224 37.1722C81.905 37.1722 80.7168 36.0238 80.7168 34.5057C80.7168 32.9877 81.9249 31.8312 83.433 31.8312C84.9411 31.8312 86.1392 32.9718 86.0757 34.919H82.0242C82.1872 35.6105 82.7693 35.9423 83.5601 35.9423H83.6973H83.6953ZM82.0699 33.8778H84.7404C84.6033 33.2579 84.1046 32.9439 83.4151 32.9439C82.7256 32.9439 82.2249 33.3394 82.0719 33.8778" fill="#138184"/>
<path d="M90.2927 29.7847H91.5644V36.9119C90.9385 37.0828 90.247 37.1722 89.5118 37.1722C87.6222 37.1722 86.5234 36.0238 86.5234 34.5156C86.5234 33.0075 87.6679 31.8312 89.4105 31.8312C89.637 31.8312 89.947 31.8591 90.2907 31.9028V29.7847H90.2927ZM89.5019 35.9423C89.7463 35.9423 90.0106 35.9065 90.2927 35.8429V33.1685C89.9828 33.087 89.7284 33.0612 89.5019 33.0612C88.5025 33.0612 87.8587 33.5381 87.8587 34.5156C87.8587 35.4932 88.5025 35.9423 89.5019 35.9423Z" fill="#138184"/>
<path d="M92.6816 30.5477C92.6816 30.1523 92.9996 29.884 93.4268 29.884C93.854 29.884 94.1619 30.1523 94.1619 30.5477C94.1619 30.9431 93.8619 31.2212 93.4268 31.2212C93.0274 31.2212 92.6816 30.9888 92.6816 30.5477ZM92.7909 32.0101H94.0626V37.0629H92.7909V32.0101Z" fill="#138184"/>
<path d="M94.7246 32.0101H95.6883V30.1602H96.96V32.0101H98.9032V33.1764H96.96V35.0084C96.96 35.6899 97.1964 35.8966 97.868 35.8966H98.939V37.0629H97.7309C96.3142 37.0629 95.6883 36.6675 95.6883 35.4555V33.1764H94.7246V32.0101Z" fill="#138184"/>
<path d="M104.562 32.0101H105.526V30.1602H106.798V32.0101H108.741V33.1764H106.798V35.0084C106.798 35.6899 107.034 35.8966 107.706 35.8966H108.777V37.0629H107.569C106.152 37.0629 105.526 36.6675 105.526 35.4555V33.1764H104.562V32.0101Z" fill="#138184"/>
<path d="M99.5586 35.4932C99.5586 34.3626 100.548 33.7785 101.939 33.7785C102.211 33.7785 102.557 33.7964 102.938 33.85V33.7785C102.938 33.2042 102.458 33.0413 101.758 33.0413C101.232 33.0413 100.459 33.248 99.96 33.4904L100.123 32.2068C100.53 32.0101 101.222 31.8293 101.929 31.8293C103.246 31.8293 104.208 32.3598 104.208 33.8321V36.7768C103.562 37.0292 102.736 37.1722 101.983 37.1722C100.701 37.1722 99.5586 36.7331 99.5586 35.4932ZM102.936 34.8733C102.7 34.8097 102.354 34.766 102.074 34.766C101.428 34.766 100.884 34.9269 100.884 35.4118C100.884 35.8966 101.375 36.0397 102.001 36.0397C102.318 36.0397 102.664 35.986 102.936 35.8966V34.8733Z" fill="#138184"/>
<path d="M109.246 30.5477C109.246 30.1523 109.564 29.884 109.991 29.884C110.418 29.884 110.726 30.1523 110.726 30.5477C110.726 30.9431 110.426 31.2212 109.991 31.2212C109.592 31.2212 109.246 30.9888 109.246 30.5477ZM109.355 32.0101H110.627V37.0629H109.355V32.0101Z" fill="#138184"/>
<path d="M111.408 34.5057C111.408 33.0055 112.606 31.8312 114.178 31.8312C115.75 31.8312 116.948 33.0075 116.948 34.5057C116.948 36.0039 115.75 37.1722 114.178 37.1722C112.606 37.1722 111.408 36.0138 111.408 34.5057ZM115.613 34.5057C115.613 33.7149 115.068 33.0612 114.178 33.0612C113.288 33.0612 112.743 33.7169 112.743 34.5057C112.743 35.2945 113.288 35.9423 114.178 35.9423C115.068 35.9423 115.613 35.3045 115.613 34.5057Z" fill="#138184"/>
<path d="M117.74 32.0915C118.531 31.9485 119.485 31.8312 120.037 31.8312C121.345 31.8312 122.4 32.2445 122.4 33.9056V37.0649H121.128V34.2633C121.128 33.3394 120.737 33.0612 119.984 33.0612C119.711 33.0612 119.376 33.0969 119.012 33.1605V37.0649H117.74V32.0915Z" fill="#138184"/>
<path d="M159.56 34.0825L157.174 37.2676C156.79 37.7663 155.312 39.5387 154.869 39.9818L151.851 43C151.851 43 152.669 41.3627 152.669 37.6769C152.669 35.9979 151.684 32.8386 151.032 31.5332C149.395 28.2567 146.937 26.2101 146.937 26.2101C146.47 25.8107 146.528 25.8008 146.118 25.3915C141.709 20.9824 137.908 17.8211 137.908 17.8211C156.457 13.4915 160.961 24.9444 159.562 34.0825H159.56Z" fill="#30AB68"/>
<path d="M157.697 19.973C170.42 3.05596 187.069 0.818631 190.754 0C190.754 0 185.191 1.52798 178.175 9.32485C174.489 13.42 172.441 16.6965 169.985 19.973L160.04 33.5838C160.04 33.5838 162.613 27.3447 157.582 20.0684" fill="#F09602"/>
<path d="M146.937 26.2101C146.47 25.8107 146.527 25.8008 146.118 25.3915C143.982 23.2555 141.993 21.4175 140.507 20.0843C136.67 20.4479 132.193 23.7522 132.193 23.7522C138.673 21.3957 144.699 24.0781 148.401 27.6785C147.567 26.7347 146.937 26.2081 146.937 26.2081V26.2101Z" fill="#018086"/>
</svg>
